<svg width="336" height="92" viewBox="0 0 336 92" fill="none" xmlns="http://www.w3.org/2000/svg">
<path d="M34.5723 67H2.90408L2.21263 61.261C2.81188 60.4774 4.07954 59.7168 6.01559 58.9792V27.3801C4.12563 26.6886 2.85798 25.905 2.21263 25.0292L2.90408 19.2902H19.0839L19.7754 25.0292C19.0378 25.905 17.7702 26.6886 15.9724 27.3801V59.4632H26.8973C27.4965 57.0662 28.3493 55.3606 29.4556 54.3465L34.5723 54.9688V67ZM37.888 37.5444C37.888 36.8529 37.9111 36.1154 37.9572 35.3317C42.2442 33.0269 46.8538 31.8745 51.7861 31.8745C56.7185 31.8745 60.2448 32.8195 62.3653 34.7094C64.5318 36.5533 65.6151 39.6417 65.6151 43.9748V58.7026C67.2284 59.0253 68.4961 59.4171 69.418 59.8781V65.8937C67.0671 67 63.7021 67.5532 59.3229 67.5532C58.8619 66.3546 58.4701 64.9026 58.1474 63.197C56.1653 66.1011 52.5698 67.5532 47.3609 67.5532C44.2724 67.5532 41.6219 66.6543 39.4092 64.8565C37.2427 63.0588 36.1594 60.6156 36.1594 57.5272C36.1594 54.4387 37.1736 52.0186 39.2018 50.267C41.2761 48.4692 44.3416 47.5703 48.398 47.5703H55.9348V44.2514C55.9348 40.6559 54.0218 38.8581 50.1958 38.8581C48.7668 38.8581 47.5914 38.9964 46.6694 39.273C46.5772 41.209 46.3007 42.7072 45.8397 43.7674H39.0635C38.2799 42.154 37.888 40.0797 37.888 37.5444ZM50.3341 60.5004C52.685 60.5004 54.5519 59.809 55.9348 58.4261V52.7562H51.0947C47.7757 52.7562 46.1163 54.0238 46.1163 56.5592C46.1163 57.7116 46.462 58.6565 47.1534 59.3941C47.891 60.1316 48.9512 60.5004 50.3341 60.5004ZM85.7167 38.0975C82.6744 38.0975 81.1532 38.9964 81.1532 40.7942C81.1532 42.4997 82.7435 43.7674 85.9242 44.5971L91.3866 46.0492C97.0104 47.5242 99.8222 50.774 99.8222 55.7986C99.8222 59.2558 98.6007 62.0907 96.1576 64.3034C93.7606 66.4699 89.9115 67.5532 84.6104 67.5532C79.3554 67.5532 75.2528 66.8156 72.3027 65.3405C72.2566 64.8335 72.2335 64.3264 72.2335 63.8193C72.2335 61.284 72.7406 59.0023 73.7547 56.974H79.4937C80.093 58.0803 80.4848 59.2327 80.6692 60.4313C81.5911 60.7078 82.9048 60.8461 84.6104 60.8461C88.6669 60.8461 90.6951 59.6937 90.6951 57.3889C90.6951 56.6513 90.4186 56.0521 89.8654 55.5911C89.3123 55.0841 88.229 54.6001 86.6156 54.1391L81.1532 52.5488C78.3413 51.7651 76.1517 50.6127 74.5844 49.0915C73.0172 47.5242 72.2335 45.2425 72.2335 42.2462C72.2335 39.2038 73.4551 36.7146 75.8982 34.7786C78.3413 32.8425 81.8216 31.8745 86.339 31.8745C90.9026 31.8745 94.7516 32.5429 97.8862 33.8797C97.9323 34.3407 97.9553 34.8016 97.9553 35.2626C97.9553 37.6596 97.4483 39.8722 96.4342 41.9005H90.7643C90.165 40.8403 89.7732 39.7339 89.5888 38.5815C88.2981 38.2589 87.0074 38.0975 85.7167 38.0975ZM102.946 17.9073C105.527 17.308 107.924 17.0084 110.137 17.0084C112.349 17.0084 114.216 17.0775 115.737 17.2158V59.3249C117.535 60.0164 118.803 60.8 119.54 61.6759L118.849 67H102.946L102.254 61.6759C102.9 60.8 104.167 60.0164 106.057 59.3249V25.5823C104.444 25.0292 103.176 24.2455 102.254 23.2314L102.946 17.9073ZM128.598 67L116.36 49.0915L123.966 39.2038C123.182 38.7429 122.629 38.2589 122.306 37.7518L122.998 32.4277H138.209L138.901 37.7518C137.887 39.0425 135.974 40.0566 133.162 40.7942L126.524 48.4001L134.337 58.7026C137.195 59.348 139.201 60.3391 140.353 61.6759L139.661 67H128.598ZM143.698 37.5444C143.698 36.8529 143.721 36.1154 143.767 35.3317C148.054 33.0269 152.664 31.8745 157.596 31.8745C162.529 31.8745 166.055 32.8195 168.176 34.7094C170.342 36.5533 171.425 39.6417 171.425 43.9748V58.7026C173.039 59.0253 174.306 59.4171 175.228 59.8781V65.8937C172.877 67 169.512 67.5532 165.133 67.5532C164.672 66.3546 164.28 64.9026 163.958 63.197C161.976 66.1011 158.38 67.5532 153.171 67.5532C150.083 67.5532 147.432 66.6543 145.22 64.8565C143.053 63.0588 141.97 60.6156 141.97 57.5272C141.97 54.4387 142.984 52.0186 145.012 50.267C147.086 48.4692 150.152 47.5703 154.208 47.5703H161.745V44.2514C161.745 40.6559 159.832 38.8581 156.006 38.8581C154.577 38.8581 153.402 38.9964 152.48 39.273C152.388 41.209 152.111 42.7072 151.65 43.7674H144.874C144.09 42.154 143.698 40.0797 143.698 37.5444ZM156.144 60.5004C158.495 60.5004 160.362 59.809 161.745 58.4261V52.7562H156.905C153.586 52.7562 151.927 54.0238 151.927 56.5592C151.927 57.7116 152.272 58.6565 152.964 59.3941C153.701 60.1316 154.761 60.5004 156.144 60.5004ZM198.441 40.9325C194.938 40.9325 192.518 41.6008 191.181 42.9376V58.7718C194.915 59.4632 197.473 60.4313 198.856 61.6759L198.165 67H178.39L177.698 61.6759C178.343 60.8 179.611 60.0164 181.501 59.3249V40.1027C179.888 39.5496 178.62 38.7659 177.698 37.7518L178.39 32.4277C180.925 31.8745 183.207 31.5979 185.235 31.5979C187.263 31.5979 188.946 31.644 190.282 31.7362V36.0923C191.343 34.8477 192.702 33.8336 194.362 33.05C196.021 32.2202 197.52 31.8054 198.856 31.8054C200.239 31.8054 201.184 31.9206 201.691 32.1511L201.484 41.1399C200.562 41.0016 199.548 40.9325 198.441 40.9325ZM205.888 37.5444C205.888 36.8529 205.911 36.1154 205.957 35.3317C210.244 33.0269 214.854 31.8745 219.786 31.8745C224.718 31.8745 228.245 32.8195 230.365 34.7094C232.532 36.5533 233.615 39.6417 233.615 43.9748V58.7026C235.228 59.0253 236.496 59.4171 237.418 59.8781V65.8937C235.067 67 231.702 67.5532 227.323 67.5532C226.862 66.3546 226.47 64.9026 226.147 63.197C224.165 66.1011 220.57 67.5532 215.361 67.5532C212.272 67.5532 209.622 66.6543 207.409 64.8565C205.243 63.0588 204.159 60.6156 204.159 57.5272C204.159 54.4387 205.174 52.0186 207.202 50.267C209.276 48.4692 212.342 47.5703 216.398 47.5703H223.935V44.2514C223.935 40.6559 222.022 38.8581 218.196 38.8581C216.767 38.8581 215.591 38.9964 214.669 39.273C214.577 41.209 214.301 42.7072 213.84 43.7674H207.063C206.28 42.154 205.888 40.0797 205.888 37.5444ZM218.334 60.5004C220.685 60.5004 222.552 59.809 223.935 58.4261V52.7562H219.095C215.776 52.7562 214.116 54.0238 214.116 56.5592C214.116 57.7116 214.462 58.6565 215.153 59.3941C215.891 60.1316 216.951 60.5004 218.334 60.5004ZM303.393 37.5444C303.393 36.8529 303.416 36.1154 303.462 35.3317C307.749 33.0269 312.359 31.8745 317.291 31.8745C322.223 31.8745 325.75 32.8195 327.87 34.7094C330.037 36.5533 331.12 39.6417 331.12 43.9748V58.7026C332.733 59.0253 334.001 59.4171 334.923 59.8781V65.8937C332.572 67 329.207 67.5532 324.828 67.5532C324.367 66.3546 323.975 64.9026 323.652 63.197C321.67 66.1011 318.075 67.5532 312.866 67.5532C309.777 67.5532 307.127 66.6543 304.914 64.8565C302.747 63.0588 301.664 60.6156 301.664 57.5272C301.664 54.4387 302.678 52.0186 304.707 50.267C306.781 48.4692 309.846 47.5703 313.903 47.5703H321.44V44.2514C321.44 40.6559 319.527 38.8581 315.701 38.8581C314.272 38.8581 313.096 38.9964 312.174 39.273C312.082 41.209 311.805 42.7072 311.344 43.7674H304.568C303.785 42.154 303.393 40.0797 303.393 37.5444ZM315.839 60.5004C318.19 60.5004 320.057 59.809 321.44 58.4261V52.7562H316.599C313.281 52.7562 311.621 54.0238 311.621 56.5592C311.621 57.7116 311.967 58.6565 312.658 59.3941C313.396 60.1316 314.456 60.5004 315.839 60.5004Z" fill="#28B3FF"/>
<path d="M259.541 61.3044L258.893 68.2043C257.819 79.6476 257.282 85.3692 257.998 88.4996C258.25 89.598 258.587 90.4767 258.979 91.0609C260.094 92.7184 261.818 90.0973 265.265 84.855C266.411 83.1075 266.986 82.2388 267.595 82.0491C267.821 81.983 268.049 81.983 268.276 82.0491C268.885 82.2388 269.458 83.1125 270.606 84.855C274.052 90.0973 275.777 92.7184 276.892 91.0609C277.284 90.4767 277.621 89.598 277.872 88.4996C278.591 85.3692 278.052 79.6476 276.977 68.2043L276.329 61.3044C273.876 66.3813 270.942 69.1019 267.935 69.088C264.928 69.1019 261.994 66.3813 259.541 61.3044Z" fill="#28B3FF"/>
<path d="M265.857 64.6337C252.446 39.5311 246.836 27.3071 249.287 7.75507C235.492 8.13026 231.175 53.2368 265.857 64.6337Z" fill="#34B7FF"/>
<path d="M269.172 64.6612C282.583 39.5585 288.193 27.3345 285.743 7.78253C299.537 8.15773 303.855 53.2642 269.172 64.6612Z" fill="#34B7FF"/>
<path d="M276.83 61.3825C276.83 62.5295 276.605 63.6653 276.166 64.7249C275.727 65.7846 275.083 66.7474 274.272 67.5585C273.461 68.3695 272.498 69.0129 271.439 69.4518C270.379 69.8907 269.243 70.1166 268.096 70.1166C266.949 70.1166 265.814 69.8907 264.754 69.4518C263.694 69.0129 262.731 68.3695 261.92 67.5585C261.109 66.7474 260.466 65.7846 260.027 64.7249C259.588 63.6653 259.362 62.5295 259.362 61.3825C259.362 59.0661 260.282 56.8446 261.92 55.2066C263.558 53.5686 265.78 52.6484 268.096 52.6484C270.413 52.6484 272.634 53.5686 274.272 55.2066C275.91 56.8446 276.83 59.0661 276.83 61.3825Z" fill="#FEC617"/>
<path d="M269.277 66.3495H266.618V58.9938H265.472V57.322L267.096 56.4622H269.277V66.3495Z" fill="#00314D"/>
<path d="M264.012 18.0952C265.518 15.3951 266.27 14.045 267.395 14.045C268.521 14.045 269.273 15.3951 270.779 18.0952L271.169 18.794C271.596 19.5617 271.81 19.9456 272.143 20.1987C272.476 20.4519 272.892 20.5458 273.724 20.7335L274.48 20.9047C277.403 21.5666 278.864 21.897 279.212 23.0153C279.559 24.1325 278.563 25.2983 276.57 27.6288L276.054 28.2314C275.488 28.8933 275.204 29.2249 275.077 29.6337C274.95 30.0437 274.993 30.4858 275.078 31.3688L275.157 32.1734C275.458 35.2835 275.608 36.838 274.698 37.5285C273.788 38.2189 272.419 37.5891 269.683 36.3293L268.974 36.0037C268.196 35.6448 267.808 35.4665 267.395 35.4665C266.983 35.4665 266.594 35.6448 265.817 36.0037L265.109 36.3293C262.372 37.5891 261.003 38.2189 260.094 37.5296C259.182 36.838 259.333 35.2835 259.634 32.1734L259.712 31.37C259.798 30.4858 259.841 30.0437 259.712 29.6349C259.587 29.2249 259.302 28.8933 258.737 28.2325L258.221 27.6288C256.228 25.2995 255.232 24.1336 255.579 23.0153C255.926 21.897 257.389 21.5654 260.313 20.9047L261.068 20.7335C261.899 20.5458 262.314 20.4519 262.648 20.1987C262.982 19.9456 263.194 19.5617 263.622 18.794L264.012 18.0952Z" fill="#FEC617"/>
</svg>
