<svg width="710" height="677" viewBox="0 0 710 677" fill="none" xmlns="http://www.w3.org/2000/svg">
<path opacity="0.4" d="M51.485 602.066C17.3125 553.205 116.272 550.948 118.478 512.503C120.684 474.058 125.782 437.714 34.9881 417.602C-55.8057 397.49 45.7963 266.171 160.853 287.166C275.91 308.162 283.224 324.643 302.426 305.237C321.627 285.83 285.768 237.084 368.552 241.251C451.337 245.419 405.901 331.809 459.983 366.777C514.065 401.744 642.712 256.468 688.429 283.378C734.146 310.289 712.883 370.405 569.352 442.437C425.82 514.468 677.997 504.281 633.243 590.196C588.489 676.111 452.035 704.824 384.705 646.335C317.375 587.846 126.88 709.868 51.485 602.066Z" fill="url(#paint0_linear_536_587)"/>
<path d="M281.679 167.555L291.493 161.852L291.518 152.998L281.705 158.701L281.679 167.555Z" fill="#E6A224"/>
<path d="M281.705 158.701L291.518 152.997C275.081 143.507 261.514 129.482 251.199 111.31C230.858 75.4775 228.172 32.9333 227.849 19.4186L218.035 25.1217C218.358 38.6364 221.044 81.1806 241.385 117.013C251.701 135.186 265.267 149.21 281.705 158.701Z" fill="#E6A224"/>
<path d="M281.979 62.0397L291.792 56.3366L291.817 47.4841L282.004 53.1872L281.979 62.0397Z" fill="#E6A224"/>
<path d="M282.004 53.1872L291.817 47.4841L220.223 6.14893L210.409 11.852L282.004 53.1872Z" fill="#F7E7A5"/>
<path d="M210.409 11.8521L210.301 16.1117C210.287 16.6867 209.982 30.4471 212.914 50.0637C214.64 61.6261 217.142 72.8361 220.352 83.3783C224.414 96.7229 229.629 109.047 235.851 120.008C247.667 140.823 263.087 156.821 281.679 167.555L281.705 158.701C265.267 149.211 251.701 135.186 241.386 117.013C221.044 81.181 218.358 38.6368 218.035 25.1221L281.979 62.04L282.004 53.1875L210.409 11.8521Z" fill="#EDB82A"/>
<g opacity="0.1">
<path d="M515.72 482.747L397.424 551.493L214.564 446.021L332.861 377.274L515.72 482.747Z" fill="black"/>
</g>
<path d="M491.68 463.547L491.624 483.247L385.743 544.779L385.798 525.079L491.68 463.547Z" fill="#7F4A1E"/>
<path d="M385.798 525.079L385.743 544.779L203.935 439.812L203.991 420.112L385.798 525.079Z" fill="#502C11"/>
<path d="M491.68 463.547L385.799 525.079L203.991 420.112L309.873 358.581L491.68 463.547Z" fill="#9F6932"/>
<path d="M460.798 367.282L460.6 461.642L381.75 507.464L381.948 413.105L460.798 367.282Z" fill="#81481E"/>
<path d="M381.948 413.105L381.75 507.464L238.718 424.884L238.916 330.525L381.948 413.105Z" fill="#4F2E12"/>
<path d="M460.798 367.282L381.948 413.105L238.916 330.525L317.766 284.703L460.798 367.282Z" fill="#A0672B"/>
<path d="M349.857 418.352L265.87 369.863L265.729 419.636L349.716 468.126L349.857 418.352Z" fill="#F6A21E"/>
<path opacity="0.1" d="M395.149 330.825C424.303 347.657 433.914 369.451 416.618 379.502C399.319 389.555 361.663 384.059 332.51 367.228C303.359 350.398 293.748 328.604 311.047 318.551C328.343 308.499 365.999 313.995 395.149 330.825Z" fill="black"/>
<path d="M413.31 345.187L413.261 362.598C413.246 367.993 410.472 372.697 404.66 376.074C387.361 386.127 349.705 380.631 320.552 363.8C301.197 352.625 290.456 339.263 290.486 328.601L290.536 311.19C290.505 321.851 301.246 335.214 320.601 346.388C349.754 363.22 387.41 368.716 404.709 358.663C410.521 355.285 413.295 350.582 413.31 345.187Z" fill="#E6A224"/>
<path d="M383.242 309.986C412.395 326.818 422.006 348.612 404.71 358.663C387.411 368.716 349.755 363.22 320.602 346.389C291.451 329.559 281.84 307.765 299.139 297.712C316.435 287.66 354.091 293.156 383.242 309.986Z" fill="#F8C12C"/>
<path d="M368.555 328.188C367.34 329.345 361.198 334.956 351.667 334.854C342.462 334.756 336.565 329.401 335.292 328.188C335.292 284.287 335.292 240.386 335.292 196.485H368.555L368.555 328.188Z" fill="#E6A224"/>
<path d="M254.751 58.9232C254.751 58.9232 247.904 261.577 351.923 261.577V75.7123L254.751 58.9232Z" fill="#F8C12C"/>
<path d="M449.095 58.9232C449.095 58.9232 455.942 261.577 351.923 261.577V75.7123L449.095 58.9232Z" fill="#F8C12C"/>
<path d="M420.475 16.5017C382.367 -5.49975 320.783 -5.50104 282.923 16.5007C245.063 38.5025 245.264 74.1758 283.371 96.1773C321.479 118.179 383.063 118.177 420.923 96.175C458.783 74.1733 458.582 38.5031 420.475 16.5017Z" fill="#F7E7A5"/>
<path d="M425.1 78.2889C421.528 81.8645 417.112 85.2266 411.848 88.2853C378.968 107.393 325.484 107.393 292.386 88.2853C286.948 85.1456 282.398 81.6895 278.742 78.0158C260.121 59.3178 264.512 35.0538 291.997 19.0854C324.878 -0.0226231 378.366 -0.0226231 411.459 19.0854C439.261 35.1391 443.832 59.5657 425.1 78.2889Z" fill="#E6A224"/>
<path d="M425.1 78.2896C421.528 81.8651 417.111 85.2273 411.848 88.2859C378.968 107.394 325.484 107.394 292.386 88.2859C286.948 85.1459 282.398 81.6901 278.742 78.0164C282.313 74.4409 286.73 71.0746 291.997 68.0159C324.878 48.9078 378.366 48.9078 411.459 68.0204C416.894 71.1556 421.443 74.6159 425.1 78.2896Z" fill="#D39520"/>
<path d="M448.964 230.502C447.817 230.902 446.638 231.222 445.427 231.461C444.491 231.646 443.535 231.782 442.561 231.869C441.711 231.946 440.847 231.986 439.968 231.989C439.172 231.991 438.364 231.964 437.545 231.906C436.779 231.853 436.003 231.773 435.218 231.666C434.463 231.564 433.7 231.438 432.927 231.287C432.173 231.141 431.411 230.971 430.64 230.778C429.879 230.587 429.109 230.375 428.331 230.14C427.554 229.905 426.768 229.647 425.974 229.367C425.172 229.085 424.362 228.78 423.543 228.452C422.709 228.118 421.865 227.759 421.013 227.378C420.137 226.985 419.252 226.568 418.357 226.125C417.426 225.665 416.486 225.178 415.536 224.663C414.774 224.251 414.005 223.821 413.23 223.373L403.416 229.076C404.191 229.524 404.96 229.954 405.722 230.366C406.673 230.881 407.613 231.368 408.543 231.828C409.438 232.271 410.323 232.688 411.2 233.081C412.052 233.463 412.895 233.82 413.729 234.155C414.548 234.483 415.358 234.788 416.16 235.07C416.954 235.35 417.74 235.608 418.518 235.843C419.296 236.078 420.066 236.291 420.827 236.481C421.598 236.674 422.36 236.844 423.113 236.99C423.886 237.141 424.65 237.267 425.404 237.369C426.19 237.476 426.965 237.556 427.731 237.61C428.55 237.667 429.358 237.694 430.154 237.692C431.033 237.689 431.897 237.649 432.747 237.572C433.721 237.484 434.677 237.348 435.613 237.164C436.824 236.925 438.003 236.605 439.15 236.205C440.779 235.635 442.343 234.902 443.839 234.005L453.653 228.302C452.157 229.199 450.593 229.933 448.964 230.502Z" fill="#E6A224"/>
<path d="M485.208 163.566L475.394 169.269C475.396 169.375 475.405 169.922 475.4 170.84C475.394 172.04 475.366 173.874 475.269 176.194C475.185 178.19 475.05 180.546 474.837 183.167C474.648 185.474 474.398 187.987 474.067 190.64C473.769 193.021 473.406 195.515 472.963 198.076C472.847 198.745 472.725 199.42 472.598 200.098C472.272 201.84 471.919 203.541 471.542 205.199C471.012 207.524 470.433 209.765 469.804 211.917C469.153 214.147 468.45 216.283 467.696 218.318C466.887 220.503 466.018 222.573 465.093 224.523C465.061 224.591 465.028 224.66 464.995 224.728C463.945 226.923 462.821 228.965 461.625 230.853C458.124 236.377 454.008 240.574 449.34 243.371L459.153 237.668C463.822 234.87 467.937 230.674 471.438 225.149C472.634 223.262 473.759 221.219 474.809 219.024C474.842 218.956 474.874 218.888 474.907 218.819C475.832 216.87 476.7 214.8 477.51 212.615C478.264 210.579 478.967 208.444 479.618 206.213C480.247 204.061 480.826 201.821 481.356 199.495C481.733 197.838 482.086 196.137 482.412 194.394C482.539 193.716 482.661 193.042 482.777 192.372C483.22 189.812 483.583 187.317 483.88 184.937C484.212 182.283 484.462 179.77 484.65 177.463C484.864 174.842 484.999 172.486 485.082 170.49C485.179 168.17 485.208 166.336 485.214 165.137C485.218 164.218 485.209 163.672 485.208 163.566Z" fill="#E6A224"/>
<path d="M485.209 163.567L475.395 169.267L475.309 164.898L485.122 159.195L485.209 163.567Z" fill="#E6A224"/>
<path d="M485.122 159.195L475.309 164.898L403.715 123.564L413.528 117.86L485.122 159.195Z" fill="#F7E7A5"/>
<path d="M472.596 200.098C470.811 209.633 468.252 217.921 464.994 224.729C460.87 233.345 455.604 239.62 449.341 243.371C437.444 250.497 421.983 248.664 403.392 237.932L403.417 229.076C419.855 238.567 433.456 240.227 443.841 234.005C464.317 221.741 467.236 182.431 467.634 169.334L403.689 132.416L403.714 123.563L475.309 164.898L475.395 169.268C475.404 169.858 475.629 183.924 472.596 200.098Z" fill="#EDB82A"/>
<path opacity="0.1" d="M197.441 608.23C208.951 608.23 218.282 603.809 218.282 598.355C218.282 592.901 208.951 588.479 197.441 588.479C185.932 588.479 176.601 592.901 176.601 598.355C176.601 603.809 185.932 608.23 197.441 608.23Z" fill="black"/>
<path d="M192.946 489.067C192.946 489.067 193.375 493.617 199.813 492.243C199.813 492.243 201.959 484.432 200.328 479.454C200.328 479.454 194.749 476.965 192.946 479.454C191.144 481.943 192.946 489.067 192.946 489.067Z" fill="#FBC3B1"/>
<path d="M185.691 494.379L187.597 488.774L193.616 488.527L197.127 490.935C197.127 490.935 194.084 492.775 193.148 498.091L185.691 494.379Z" fill="#FBC3B1"/>
<path d="M187.062 490.534C187.062 490.534 191.44 491.771 193.481 490.534C195.522 489.297 196.425 484.916 198.08 486.086C198.08 486.086 198.732 485.251 198.08 483.378C197.428 481.505 197.696 480.335 198.666 480.268C199.635 480.201 201.575 479.9 201.575 477.225C201.575 477.225 199.445 477.717 196.675 476.5C195.32 475.905 191.108 474.784 189.737 475.987C188.366 477.191 188.199 478.596 188.266 479.432C188.266 479.432 186.895 479.866 186.628 481.705C186.36 483.545 186.661 487.859 187.062 490.534Z" fill="#5F3D37"/>
<path d="M196.607 488.58C196.607 488.58 193.826 486.066 195.166 484.134C195.294 483.949 195.494 483.825 195.718 483.809C196.248 483.77 197.268 484.034 198.145 486.238L196.607 488.58Z" fill="#FBC3B1"/>
<path d="M183.386 495.44C185.594 496.323 185.159 499.728 184.425 501.679C183.692 503.629 178.534 517.397 178.534 520.515C178.534 523.631 180.551 535.916 180.551 535.916C180.551 535.916 177.617 537.749 175.722 536.588C175.722 536.588 171.994 525.22 172.972 519.109C173.95 512.997 178.722 498.374 179.333 496.974C179.923 495.623 181.858 494.828 183.386 495.44Z" fill="#CC2468"/>
<path d="M175.722 536.588C175.722 536.588 175.534 539.023 176.153 540.343C177.018 542.187 178.975 543.552 181.251 543.188C183.527 542.824 180.551 535.916 180.551 535.916L175.722 536.588Z" fill="#FBC3B1"/>
<path d="M184.202 590.953C184.202 590.953 183.197 596.09 186.809 596.167C186.809 596.167 188.893 597.071 192.662 594.333C192.662 594.333 196.168 594.318 198.728 593.393C198.728 593.393 200.151 592.184 198.301 591.687C196.452 591.189 191.038 589.736 191.038 589.736C191.038 589.736 190.486 589.964 184.202 590.953Z" fill="#4F312B"/>
<path d="M181.413 532.19C181.413 532.19 187.483 536.006 193.474 535.257C193.474 535.257 192.631 557.348 192.444 560.531C192.257 563.714 191.13 589.736 191.038 589.736C190.947 589.736 187.863 592.759 184.202 590.953C184.113 590.297 183.364 581.03 182.522 578.877C181.68 576.724 180.837 568.674 183.177 565.117C183.177 565.117 183.739 552.293 182.616 549.485C181.492 546.677 178.433 538.95 181.413 532.19Z" fill="#1C5B8A"/>
<path d="M185.621 493.178C186.865 493.419 188.24 493.761 189.704 494.25C192.155 495.068 193.129 495.362 194.757 496.317C194.286 497.73 193.815 499.142 193.344 500.554L184.92 495.231L185.621 493.178Z" fill="#EE3582"/>
<path d="M187.578 495.176C189.107 495.397 190.578 495.907 191.922 496.667C195.592 498.743 200.43 502.525 200.94 503.482C201.56 504.644 202.986 508.448 202.881 511.619C202.775 514.789 202.458 531.591 203.937 535.924C203.937 535.924 193.74 538.83 186.977 535.66C186.977 535.66 182.615 533.604 181.414 532.19C181.414 532.19 179.929 517.486 178.657 510.488C177.384 503.489 178.501 496.014 181.555 495.289C183.662 494.788 185.953 494.94 187.578 495.176Z" fill="#B01E5A"/>
<path d="M230.846 506.647C230.846 506.647 233.921 505.2 234.468 503.105C235.014 501.011 234.146 498.963 232.657 497.347C232.657 497.347 235.366 493.864 234.632 492.795C233.899 491.725 229.05 497.37 228.663 498.235C228.277 499.1 227.06 502.796 227.06 502.796L229.073 506.019L230.846 506.647Z" fill="#FBC3B1"/>
<path d="M196.408 506.582C196.847 503.588 198.841 502.536 200.94 503.482C203.039 504.428 214.919 512.326 216.812 511.282C218.705 510.237 227.06 502.796 227.06 502.796C227.06 502.796 230.455 503.775 230.846 506.647C230.846 506.647 222.948 517.679 218.574 518.136C214.2 518.593 199.317 513.436 198.404 512.326C197.49 511.217 196.045 509.062 196.408 506.582Z" fill="#CC2468"/>
<path d="M195.252 597.224C195.252 597.224 192.856 601.249 195.88 602.747C198.903 604.245 201.483 601.343 203.937 601.998C206.391 602.653 210.229 603.87 213.318 601.904C213.318 601.904 213.591 601.722 213.894 601.407C214.375 600.907 214.15 600.073 213.485 599.876C211.139 599.179 205.875 597.477 204.349 595.82C204.349 595.82 204.252 596.069 195.252 597.224Z" fill="#4F312B"/>
<path d="M203.937 535.924C203.937 535.924 205.455 558.846 205.174 564.275C204.893 569.704 203.583 574.666 203.489 579.065C203.396 583.464 204.366 595.82 204.349 595.82C204.332 595.82 199.464 599.097 195.252 597.225C195.252 597.225 195.72 586.085 194.784 581.686C193.847 577.286 193.901 569.049 196.542 565.867C196.542 565.867 192.28 552.013 190.537 549.767C188.793 547.52 185.347 541.678 186.976 535.66C186.976 535.66 194.369 538.275 203.937 535.924Z" fill="#2373AE"/>
<path d="M170.59 360.838C170.59 360.838 170.095 363.95 171.085 365.505C172.075 367.061 172.782 366.425 174.126 368.299C175.47 370.173 179.034 374.751 181.48 372.754C184.67 370.15 179.522 365.399 177.012 362.641C174.501 359.883 175.47 356.312 175.47 356.312L170.59 360.838Z" fill="#543216"/>
<path d="M159.813 309.764C159.73 314.602 161.755 328.197 165.918 337.04C165.918 337.04 165.805 342.957 166.593 346.107C167.38 349.257 170.193 361.409 170.193 361.409C170.193 361.409 173.006 362.31 175.932 360.172C175.932 360.172 174.582 339.806 174.582 335.193C174.582 330.58 172.331 308.302 170.868 305.039L159.813 309.764Z" fill="#39546E"/>
<path d="M147.682 364.818C147.682 364.818 147.084 367.579 147.36 369.052C147.636 370.524 149.753 376.368 151.225 377.334C152.698 378.3 156.839 378.254 156.655 375.539C156.471 372.825 153.204 369.466 153.434 364.818H147.682Z" fill="#543216"/>
<path d="M151.518 309.008C151.518 309.008 149.363 311.815 149.101 316.582C148.84 321.349 149.101 336.564 149.101 336.564C149.101 336.564 147.273 341.134 147.077 344.073C146.881 347.012 148.253 361.051 147.077 365.295C147.077 365.295 150.799 366.993 153.738 365.295C153.738 365.295 157.329 342.832 158.635 338.457C159.941 334.082 165.883 319.455 165.23 308.028L151.518 309.008Z" fill="#3F5D7A"/>
<path d="M166.191 271.885C168.325 272.474 180.294 279.459 180.294 279.459L187.627 270.575C187.627 270.575 188.96 272.879 191.005 273.035C191.005 273.035 185.405 285.637 182.516 285.992C179.626 286.348 169.982 284.437 166.915 280.926C163.848 277.414 164.355 271.379 166.191 271.885Z" fill="#EF4782"/>
<path d="M187.627 270.575C187.627 270.575 187.654 267.476 187.939 266.621C188.224 265.767 190.289 262.812 190.538 263.274C190.788 263.737 190.218 266.229 190.218 266.229C190.218 266.229 191.642 265.339 191.891 264.52C192.14 263.701 191.963 261.921 192.746 262.028C193.529 262.135 195.701 264.125 195.701 265.373C195.701 266.621 193.074 272.648 191.005 273.035C191.005 273.035 188.526 272.783 187.627 270.575Z" fill="#FBC3B1"/>
<path opacity="0.1" d="M164.714 379.171C175.785 379.171 184.76 375.968 184.76 372.017C184.76 368.065 175.785 364.862 164.714 364.862C153.643 364.862 144.668 368.065 144.668 372.017C144.668 375.968 153.643 379.171 164.714 379.171Z" fill="black"/>
<path d="M155.061 273.165C153.071 274.051 151.497 274.697 151.497 274.697C151.497 274.697 147.076 278.512 144.421 279.563C144.046 279.711 143.776 280.044 143.725 280.443C143.553 281.791 143.425 284.926 145.211 288.181C147.582 292.5 151.743 302.403 150.584 308.197C149.425 313.991 169.704 310.514 171.653 305.563C171.653 305.563 169.335 295.977 169.651 293.396C169.967 290.815 168.65 273.696 166.491 272.063C164.331 270.43 155.061 273.165 155.061 273.165Z" fill="#EE3174"/>
<path d="M146.386 281.472C147.98 283.539 146.872 287.219 144.45 289.404C142.029 291.589 134.293 297.672 133.112 297.376C131.931 297.081 123.073 283.734 123.073 283.734C123.073 283.734 125.494 282.317 125.789 280.9L134.057 289.758C134.057 289.758 139.766 283.246 141.852 281.254C145.061 278.19 146.386 281.472 146.386 281.472Z" fill="#EF4782"/>
<path d="M125.789 280.9C125.789 280.9 126.197 275.604 125.57 275.358C124.943 275.113 124.044 278.129 124.044 278.129C124.044 278.129 123.056 275.576 123.073 274.431C123.089 273.286 122.68 271.868 121.263 272.495C119.845 273.122 118.809 274.785 119.327 277.839C119.845 280.893 123.073 283.734 123.073 283.734C123.073 283.734 125.081 282.842 125.789 280.9Z" fill="#FBC3B1"/>
<path d="M158.922 276.08C158.922 276.08 160.251 276.379 160.698 277.298C160.698 277.298 161.035 274.708 159.24 273.743C159.24 273.743 159.062 274.442 158.922 276.08Z" fill="#EF4782"/>
<path d="M158.1 276.146L158.922 276.08C159.114 276.127 159.351 276.203 159.609 276.328C159.882 276.462 160.098 276.613 160.258 276.743C160.258 277.225 160.258 277.707 160.258 278.19L158.1 278.931L157.073 278.334C157.073 278.334 157.242 276.614 158.1 276.146Z" fill="#3658A7"/>
<path d="M158.1 278.931C158.1 278.931 160.218 285.64 159.813 290.051C159.407 294.462 159.601 301.698 159.601 301.698L162.154 304.251L163.47 300.885C163.47 300.885 161.741 293.882 161.986 290.013C162.232 286.143 160.953 279.483 160.258 278.19L158.1 278.931Z" fill="#3658A7"/>
<path d="M162.347 264.077C162.306 266.425 161.289 270.76 160.869 272.454C160.765 272.874 160.386 273.17 159.954 273.163C159.14 273.15 158.129 273.079 156.991 272.871C155.113 272.527 153.59 272.248 152.267 271.207C151.659 270.728 151.19 270.165 150.83 269.575C149.561 267.508 149.617 265.116 149.623 264.925C149.714 262.487 150.953 258.32 154.52 257.704C157.741 257.15 159.931 258.56 161.281 260.426C161.588 260.85 161.819 261.305 161.987 261.773C162.255 262.524 162.36 263.312 162.347 264.077Z" fill="#FBC3B1"/>
<path d="M161.986 261.773C161.463 262.582 160.649 263.481 159.512 263.765C157.288 264.321 154.045 261.849 153.211 263.116C152.378 264.382 153.365 267.07 153.211 267.564C153.057 268.059 152.162 268.336 152.162 268.336L150.83 269.575C149.561 267.508 149.617 265.116 149.623 264.925C149.714 262.487 150.953 258.32 154.52 257.704C157.741 257.15 159.931 258.56 161.281 260.426C161.587 260.85 161.819 261.305 161.986 261.773Z" fill="#444444"/>
<path d="M152.915 268.377C152.915 268.377 151.977 266.903 150.691 267.332C149.405 267.761 150.155 270.387 152.781 270.575L152.915 268.377Z" fill="#FBC3B1"/>
<path d="M158.922 276.08C158.922 276.08 159.126 273.028 159.813 272.214L152.079 269.924V273.165C152.079 273.165 155.412 276.665 158.922 276.08Z" fill="#FBC3B1"/>
<path d="M152.079 273.165C152.079 273.165 151.338 273.882 151.002 275.01C151.002 275.01 153.196 278.269 157.004 279.061C157.004 279.061 157.034 276.978 158.1 276.146C156.973 276.063 156.101 275.781 155.54 275.552C154.626 275.18 153.989 274.728 153.529 274.397C152.9 273.946 152.418 273.504 152.079 273.165Z" fill="#EF4782"/>
<path opacity="0.1" d="M543.811 592.315C554.882 592.315 563.857 589.112 563.857 585.161C563.857 581.21 554.882 578.007 543.811 578.007C532.74 578.007 523.765 581.21 523.765 585.161C523.765 589.112 532.74 592.315 543.811 592.315Z" fill="black"/>
<path d="M556.922 576.344C556.922 576.344 557.56 580.253 556.922 580.811C556.284 581.369 551.236 580.731 549.293 579.615C547.349 578.498 544.264 579.11 544.264 577.049C544.264 574.988 549.442 576.982 552.983 575.227L556.922 576.344Z" fill="#404040"/>
<path d="M545.143 584.924C545.143 584.924 546.78 587.499 546.264 590.604C546.264 590.604 545.445 592.422 541.735 592.27C538.024 592.118 533.783 593.651 531.89 592.279C529.996 590.907 527.697 589.241 529.301 587.726C530.905 586.211 535.222 588.332 539.008 585.833L545.143 584.924Z" fill="#404040"/>
<path d="M551.388 524.384C551.388 524.384 554.29 527.447 554.371 533.008C554.452 538.57 553.565 551.709 553.565 551.709C553.565 551.709 556.064 556.222 556.708 560.172C557.353 564.122 557.434 576.776 557.434 576.776C557.434 576.776 554.29 577.824 552.114 575.809C552.114 575.809 547.015 558.028 545.827 553.24C544.638 548.452 541.152 526.318 541.152 526.318L551.388 524.384Z" fill="#4A3B19"/>
<path d="M529.973 529.596C529.973 529.596 528.924 533.868 529.448 541.213C529.973 548.558 531.547 560.474 531.547 560.474L537.842 585.956C537.842 585.956 540.915 587.905 546.086 585.206C546.086 585.206 545.348 569.536 544.878 566.658C544.425 563.885 541.964 557.326 541.964 557.326C541.964 557.326 548.859 540.013 545.187 526.973L529.973 529.596Z" fill="#534218"/>
<path d="M551.956 494.814C551.956 494.814 546.087 488.812 541.103 486.165C541.103 486.165 530.763 471.733 529.124 470.158C529.124 470.158 525.847 471.04 525.343 473.498C525.343 473.498 532.327 487.532 533.625 488.434C534.923 489.336 544.502 497.446 546.771 498.392C549.039 499.337 552.415 496.782 551.956 494.814Z" fill="#98C449"/>
<path d="M529.124 470.158C529.124 470.158 530.029 465.701 529.124 465.06C528.22 464.418 527.511 467.39 527.511 467.39C527.511 467.39 525.957 462.425 524.944 462.526C523.931 462.628 520.824 464.553 522.58 468.639C524.336 472.726 525.343 473.497 525.343 473.497C525.343 473.497 526.753 471.001 529.124 470.158Z" fill="#FBC3B1"/>
<path d="M537.338 496.751C537.338 496.751 527.368 498.319 527.098 505.922C526.829 513.524 529.471 516.059 529.686 519.51C529.902 522.961 528.554 529.647 529.471 530.51C530.387 531.372 535.995 533.368 544.137 529.809C552.28 526.25 553.035 524.848 552.981 523.985C552.927 523.123 551.848 513.147 551.902 510.505C551.956 507.863 553.844 496.485 551.956 494.814C550.068 493.142 537.338 496.751 537.338 496.751Z" fill="#84AB3F"/>
<path d="M513.87 477.174C513.87 477.174 515.945 471.583 515.052 470.512C514.16 469.441 512.839 472.832 512.839 472.832C512.839 472.832 511.197 469.762 511.054 468.62C510.911 467.477 509.769 467.334 508.555 468.155C507.341 468.976 505.414 470.19 506.485 473.189C507.556 476.187 509.031 478.615 509.031 478.615L513.87 477.174Z" fill="#FBC3B1"/>
<path d="M532.483 507.113C534.847 504.912 533.015 501.689 531.685 500.36C530.356 499.03 520.145 492.117 520.145 492.117C520.145 492.117 516.423 481.694 513.87 477.174C513.87 477.174 510.095 476.599 509.031 478.615C509.031 478.615 512.062 492.117 514.242 495.999C516.422 499.881 525.091 506.635 526.473 507.858C527.856 509.081 530.941 508.549 532.483 507.113Z" fill="#98C449"/>
<path d="M535.42 482.66C535.42 482.66 533.216 488.459 536.714 494.115L537.337 496.751C537.337 496.751 540.117 497.757 545.629 495.553L545.187 493.914L544.67 485.632L535.42 482.66Z" fill="#FBC3B1"/>
<path d="M538.924 478.817C546.106 477.261 547.639 485.148 547.56 486.926C547.37 491.213 545.187 493.914 545.187 493.914C545.187 493.914 540.374 495.101 538.924 494.244C537.473 493.387 535.232 489.945 534.77 486.623C534.309 483.3 534.968 479.674 538.924 478.817Z" fill="#303030"/>
<path d="M332.581 272.887L261.639 498.462L264.986 498.848L335.941 273.198L332.581 272.887Z" fill="#734B1E"/>
<path d="M335.469 272.311C334.803 271.926 333.725 271.926 333.063 272.311C332.401 272.696 332.404 273.32 333.071 273.705C333.738 274.09 334.815 274.09 335.477 273.705C336.14 273.32 336.136 272.696 335.469 272.311Z" fill="#5A3B18"/>
<path d="M264.512 497.966C263.845 497.581 262.768 497.581 262.105 497.966C261.443 498.351 261.447 498.975 262.114 499.36C262.78 499.745 263.858 499.745 264.52 499.36C265.183 498.975 265.179 498.351 264.512 497.966Z" fill="#734B1E"/>
<path d="M329.665 287.491C329.656 288.288 330.205 288.624 330.893 288.24C331.581 287.857 332.146 286.901 332.156 286.104C332.165 285.306 331.616 284.971 330.928 285.354C330.24 285.737 329.675 286.694 329.665 287.491Z" fill="#66431A"/>
<path d="M350.957 300.691C351.178 300.819 351.483 300.805 351.821 300.616C352.509 300.233 353.074 299.276 353.084 298.479C353.089 298.074 352.949 297.788 352.721 297.655L331.792 285.28C332.021 285.413 332.16 285.698 332.155 286.103C332.146 286.901 331.58 287.857 330.893 288.24C330.555 288.429 330.25 288.443 330.029 288.315C343.948 296.404 337.038 292.602 350.957 300.691Z" fill="#66431A"/>
<path d="M330.029 288.315L350.957 300.69C350.728 300.557 350.589 300.272 350.594 299.866L329.665 287.491C329.661 287.896 329.8 288.182 330.029 288.315Z" fill="#66431A"/>
<path d="M352.721 297.656L331.792 285.28C331.571 285.151 331.266 285.166 330.928 285.355C330.24 285.738 329.675 286.694 329.665 287.491L350.594 299.867C350.603 299.07 351.169 298.114 351.856 297.73C352.195 297.542 352.499 297.527 352.721 297.656Z" fill="#66431A"/>
<path d="M350.594 299.867C350.584 300.664 351.133 300.999 351.821 300.616C352.509 300.233 353.074 299.276 353.084 298.479C353.093 297.682 352.544 297.347 351.856 297.73C351.169 298.113 350.604 299.07 350.594 299.867Z" fill="#66431A"/>
<path d="M323.855 304.684C323.846 305.481 324.395 305.817 325.083 305.434C325.77 305.05 326.336 304.094 326.345 303.297C326.355 302.5 325.806 302.164 325.118 302.547C324.431 302.931 323.865 303.888 323.855 304.684Z" fill="#66431A"/>
<path d="M345.147 317.884C345.368 318.013 345.673 317.998 346.011 317.809C346.699 317.426 347.264 316.47 347.274 315.673C347.279 315.267 347.139 314.982 346.911 314.849L325.982 302.473C326.211 302.606 326.351 302.892 326.346 303.297C326.336 304.094 325.771 305.051 325.083 305.434C324.745 305.622 324.44 305.637 324.219 305.508C338.138 313.597 331.228 309.795 345.147 317.884Z" fill="#66431A"/>
<path d="M324.218 305.508L345.147 317.884C344.918 317.751 344.779 317.465 344.784 317.06L323.855 304.684C323.85 305.09 323.99 305.375 324.218 305.508Z" fill="#66431A"/>
<path d="M346.91 314.849L325.982 302.473C325.761 302.345 325.456 302.359 325.118 302.548C324.43 302.931 323.865 303.888 323.855 304.685L344.784 317.06C344.793 316.263 345.358 315.307 346.046 314.924C346.385 314.735 346.689 314.72 346.91 314.849Z" fill="#66431A"/>
<path d="M344.784 317.06C344.774 317.858 345.324 318.193 346.012 317.81C346.699 317.427 347.265 316.47 347.274 315.673C347.284 314.876 346.734 314.54 346.047 314.924C345.359 315.307 344.794 316.263 344.784 317.06Z" fill="#66431A"/>
<path d="M318.045 321.877C318.036 322.675 318.585 323.01 319.273 322.627C319.961 322.244 320.526 321.287 320.536 320.49C320.545 319.693 319.996 319.357 319.308 319.741C318.621 320.124 318.055 321.081 318.045 321.877Z" fill="#66431A"/>
<path d="M339.337 335.077C339.558 335.206 339.863 335.191 340.201 335.003C340.889 334.619 341.454 333.663 341.464 332.866C341.469 332.46 341.33 332.175 341.101 332.042L320.173 319.666C320.401 319.799 320.541 320.085 320.536 320.49C320.526 321.287 319.961 322.244 319.273 322.627C318.935 322.815 318.63 322.83 318.409 322.701C332.328 330.79 325.418 326.989 339.337 335.077Z" fill="#66431A"/>
<path d="M318.409 322.701L339.337 335.077C339.108 334.945 338.969 334.658 338.974 334.253L318.045 321.878C318.041 322.283 318.18 322.568 318.409 322.701Z" fill="#66431A"/>
<path d="M341.101 332.042L320.172 319.666C319.951 319.538 319.646 319.552 319.308 319.741C318.62 320.124 318.055 321.081 318.045 321.878L338.974 334.254C338.983 333.456 339.549 332.5 340.236 332.117C340.575 331.928 340.879 331.914 341.101 332.042Z" fill="#66431A"/>
<path d="M338.974 334.254C338.964 335.051 339.514 335.386 340.201 335.003C340.889 334.62 341.454 333.663 341.464 332.866C341.474 332.069 340.924 331.733 340.237 332.117C339.549 332.5 338.984 333.456 338.974 334.254Z" fill="#66431A"/>
<path d="M312.51 339.113C312.5 339.91 313.049 340.246 313.737 339.862C314.425 339.479 314.99 338.523 315 337.725C315.009 336.928 314.46 336.593 313.772 336.976C313.085 337.359 312.519 338.316 312.51 339.113Z" fill="#66431A"/>
<path d="M333.801 352.313C334.022 352.441 334.327 352.427 334.665 352.238C335.353 351.855 335.918 350.898 335.928 350.101C335.933 349.696 335.793 349.41 335.565 349.277L314.636 336.901C314.865 337.035 315.004 337.32 314.999 337.725C314.99 338.523 314.424 339.479 313.737 339.862C313.399 340.051 313.094 340.065 312.873 339.937C326.791 348.026 319.882 344.224 333.801 352.313Z" fill="#66431A"/>
<path d="M312.873 339.937L333.801 352.312C333.572 352.179 333.433 351.894 333.438 351.489L312.509 339.113C312.504 339.518 312.644 339.804 312.873 339.937Z" fill="#66431A"/>
<path d="M335.565 349.278L314.636 336.902C314.415 336.773 314.11 336.788 313.772 336.977C313.084 337.36 312.519 338.316 312.509 339.113L333.438 351.489C333.447 350.692 334.013 349.735 334.7 349.352C335.039 349.164 335.343 349.149 335.565 349.278Z" fill="#66431A"/>
<path d="M333.438 351.489C333.428 352.286 333.978 352.621 334.665 352.238C335.353 351.855 335.918 350.898 335.928 350.101C335.938 349.304 335.388 348.969 334.7 349.352C334.013 349.735 333.447 350.692 333.438 351.489Z" fill="#66431A"/>
<path d="M307.647 356.829C307.638 357.626 308.187 357.962 308.875 357.579C309.562 357.196 310.128 356.239 310.137 355.442C310.147 354.645 309.598 354.309 308.91 354.692C308.223 355.076 307.657 356.032 307.647 356.829Z" fill="#66431A"/>
<path d="M328.939 370.029C329.16 370.157 329.465 370.143 329.804 369.954C330.491 369.571 331.057 368.615 331.066 367.817C331.071 367.412 330.932 367.127 330.703 366.994L309.775 354.618C310.003 354.751 310.143 355.037 310.138 355.442C310.128 356.239 309.563 357.195 308.875 357.579C308.537 357.767 308.232 357.782 308.011 357.653C321.93 365.742 315.02 361.94 328.939 370.029Z" fill="#66431A"/>
<path d="M308.011 357.653L328.939 370.029C328.71 369.896 328.571 369.61 328.576 369.205L307.647 356.829C307.642 357.234 307.782 357.52 308.011 357.653Z" fill="#66431A"/>
<path d="M330.703 366.994L309.774 354.618C309.553 354.49 309.248 354.504 308.91 354.693C308.222 355.076 307.657 356.033 307.647 356.83L328.576 369.205C328.585 368.408 329.151 367.452 329.838 367.069C330.177 366.88 330.481 366.865 330.703 366.994Z" fill="#66431A"/>
<path d="M328.576 369.205C328.566 370.002 329.116 370.338 329.803 369.954C330.491 369.571 331.056 368.615 331.066 367.818C331.076 367.02 330.526 366.685 329.838 367.068C329.151 367.451 328.585 368.408 328.576 369.205Z" fill="#66431A"/>
<path d="M301.95 374.153C301.941 374.95 302.49 375.286 303.178 374.903C303.866 374.519 304.431 373.563 304.441 372.766C304.45 371.969 303.901 371.633 303.213 372.016C302.525 372.4 301.96 373.356 301.95 374.153Z" fill="#66431A"/>
<path d="M323.242 387.353C323.463 387.482 323.768 387.467 324.106 387.278C324.794 386.895 325.359 385.939 325.369 385.142C325.374 384.736 325.234 384.451 325.006 384.318L304.077 371.942C304.306 372.075 304.445 372.361 304.441 372.766C304.431 373.563 303.866 374.52 303.178 374.903C302.84 375.091 302.535 375.106 302.314 374.977C316.233 383.066 309.323 379.264 323.242 387.353Z" fill="#66431A"/>
<path d="M302.314 374.977L323.242 387.353C323.013 387.22 322.874 386.934 322.879 386.529L301.95 374.153C301.945 374.559 302.085 374.844 302.314 374.977Z" fill="#66431A"/>
<path d="M325.006 384.318L304.077 371.942C303.856 371.814 303.551 371.828 303.213 372.017C302.525 372.4 301.96 373.357 301.95 374.154L322.879 386.529C322.889 385.732 323.454 384.776 324.142 384.392C324.479 384.204 324.784 384.189 325.006 384.318Z" fill="#66431A"/>
<path d="M322.879 386.529C322.869 387.327 323.418 387.662 324.106 387.279C324.794 386.896 325.359 385.939 325.369 385.142C325.378 384.345 324.829 384.009 324.141 384.393C323.454 384.776 322.888 385.732 322.879 386.529Z" fill="#66431A"/>
<path d="M295.139 394.176C295.129 394.973 295.679 395.308 296.367 394.925C297.054 394.542 297.619 393.585 297.629 392.788C297.639 391.991 297.089 391.656 296.402 392.039C295.714 392.422 295.149 393.379 295.139 394.176Z" fill="#66431A"/>
<path d="M316.43 407.375C316.652 407.504 316.956 407.489 317.295 407.301C317.982 406.917 318.548 405.961 318.557 405.164C318.562 404.759 318.423 404.473 318.194 404.34L297.266 391.964C297.494 392.097 297.634 392.383 297.629 392.788C297.619 393.585 297.054 394.542 296.366 394.925C296.028 395.113 295.724 395.128 295.502 395C309.421 403.088 302.511 399.286 316.43 407.375Z" fill="#66431A"/>
<path d="M295.502 394.999L316.43 407.375C316.202 407.242 316.062 406.956 316.067 406.551L295.139 394.175C295.134 394.581 295.274 394.867 295.502 394.999Z" fill="#66431A"/>
<path d="M318.194 404.34L297.266 391.965C297.045 391.836 296.74 391.851 296.402 392.039C295.714 392.422 295.149 393.379 295.139 394.176L316.068 406.552C316.077 405.755 316.643 404.798 317.33 404.415C317.668 404.226 317.973 404.212 318.194 404.34Z" fill="#66431A"/>
<path d="M316.067 406.551C316.058 407.349 316.607 407.684 317.295 407.301C317.982 406.918 318.548 405.961 318.557 405.164C318.567 404.367 318.018 404.031 317.33 404.415C316.642 404.798 316.077 405.755 316.067 406.551Z" fill="#66431A"/>
<path d="M290.323 412.113C290.314 412.91 290.863 413.246 291.551 412.863C292.239 412.479 292.804 411.523 292.813 410.726C292.823 409.928 292.274 409.593 291.586 409.976C290.899 410.359 290.333 411.316 290.323 412.113Z" fill="#66431A"/>
<path d="M311.615 425.313C311.836 425.441 312.141 425.427 312.479 425.238C313.167 424.855 313.732 423.898 313.742 423.101C313.747 422.696 313.607 422.41 313.379 422.277L292.451 409.902C292.679 410.035 292.819 410.32 292.814 410.726C292.804 411.523 292.239 412.479 291.551 412.863C291.213 413.051 290.908 413.066 290.687 412.937C304.606 421.026 297.696 417.224 311.615 425.313Z" fill="#66431A"/>
<path d="M290.687 412.937L311.615 425.313C311.386 425.18 311.247 424.894 311.252 424.489L290.323 412.113C290.319 412.518 290.458 412.804 290.687 412.937Z" fill="#66431A"/>
<path d="M313.379 422.278L292.45 409.902C292.229 409.774 291.924 409.788 291.586 409.977C290.898 410.36 290.333 411.316 290.323 412.114L311.252 424.489C311.261 423.692 311.827 422.736 312.514 422.352C312.853 422.164 313.157 422.149 313.379 422.278Z" fill="#66431A"/>
<path d="M311.252 424.489C311.242 425.286 311.792 425.621 312.479 425.238C313.167 424.855 313.732 423.898 313.742 423.101C313.752 422.304 313.202 421.969 312.515 422.352C311.827 422.735 311.262 423.692 311.252 424.489Z" fill="#66431A"/>
<path d="M284.774 428.241C284.764 429.038 285.314 429.373 286.001 428.99C286.689 428.607 287.254 427.65 287.264 426.853C287.274 426.056 286.724 425.721 286.037 426.104C285.349 426.487 284.784 427.444 284.774 428.241Z" fill="#66431A"/>
<path d="M306.065 441.44C306.287 441.569 306.591 441.554 306.93 441.366C307.617 440.983 308.183 440.026 308.192 439.229C308.197 438.824 308.058 438.538 307.829 438.405L286.901 426.029C287.129 426.162 287.269 426.448 287.264 426.853C287.254 427.65 286.689 428.607 286.001 428.99C285.663 429.179 285.359 429.193 285.137 429.065C299.056 437.153 292.146 433.351 306.065 441.44Z" fill="#66431A"/>
<path d="M285.137 429.064L306.065 441.44C305.837 441.307 305.697 441.021 305.702 440.616L284.774 428.24C284.769 428.646 284.908 428.932 285.137 429.064Z" fill="#66431A"/>
<path d="M307.829 438.405L286.901 426.03C286.68 425.901 286.375 425.916 286.036 426.104C285.349 426.487 284.783 427.444 284.774 428.241L305.702 440.617C305.712 439.82 306.277 438.863 306.965 438.48C307.303 438.291 307.608 438.277 307.829 438.405Z" fill="#66431A"/>
<path d="M305.702 440.616C305.692 441.413 306.242 441.749 306.93 441.366C307.617 440.982 308.183 440.026 308.192 439.229C308.202 438.432 307.652 438.096 306.965 438.479C306.277 438.863 305.712 439.82 305.702 440.616Z" fill="#66431A"/>
<path d="M279.777 443.832C279.767 444.629 280.317 444.965 281.004 444.582C281.692 444.198 282.257 443.242 282.267 442.445C282.277 441.648 281.727 441.312 281.04 441.695C280.352 442.079 279.787 443.036 279.777 443.832Z" fill="#66431A"/>
<path d="M301.068 457.032C301.29 457.16 301.594 457.146 301.933 456.957C302.62 456.574 303.186 455.617 303.195 454.82C303.2 454.415 303.061 454.129 302.832 453.996L281.904 441.621C282.132 441.754 282.272 442.039 282.267 442.445C282.257 443.242 281.692 444.198 281.004 444.582C280.666 444.77 280.362 444.785 280.14 444.656C294.059 452.745 287.149 448.943 301.068 457.032Z" fill="#66431A"/>
<path d="M280.14 444.656L301.068 457.032C300.84 456.899 300.7 456.613 300.705 456.208L279.777 443.832C279.772 444.237 279.911 444.523 280.14 444.656Z" fill="#66431A"/>
<path d="M302.832 453.997L281.904 441.621C281.683 441.493 281.378 441.507 281.04 441.696C280.352 442.079 279.787 443.036 279.777 443.833L300.705 456.208C300.715 455.411 301.28 454.455 301.968 454.071C302.306 453.883 302.611 453.868 302.832 453.997Z" fill="#66431A"/>
<path d="M300.705 456.208C300.696 457.005 301.245 457.341 301.933 456.958C302.62 456.574 303.186 455.618 303.195 454.821C303.205 454.024 302.656 453.688 301.968 454.071C301.28 454.455 300.715 455.411 300.705 456.208Z" fill="#66431A"/>
<path d="M274.491 461.026C274.482 461.823 275.031 462.159 275.719 461.775C276.406 461.392 276.972 460.436 276.981 459.638C276.991 458.841 276.442 458.506 275.754 458.889C275.066 459.272 274.501 460.229 274.491 461.026Z" fill="#66431A"/>
<path d="M295.783 474.226C296.004 474.354 296.309 474.34 296.647 474.151C297.335 473.768 297.9 472.811 297.91 472.014C297.915 471.609 297.775 471.323 297.547 471.191L276.618 458.815C276.847 458.948 276.987 459.234 276.982 459.638C276.972 460.436 276.407 461.392 275.719 461.775C275.381 461.964 275.076 461.978 274.855 461.85C288.774 469.939 281.864 466.137 295.783 474.226Z" fill="#66431A"/>
<path d="M274.854 461.85L295.783 474.225C295.554 474.092 295.415 473.806 295.419 473.401L274.491 461.026C274.486 461.431 274.626 461.717 274.854 461.85Z" fill="#66431A"/>
<path d="M297.546 471.191L276.618 458.815C276.397 458.686 276.092 458.701 275.754 458.889C275.066 459.273 274.501 460.229 274.491 461.026L295.419 473.402C295.429 472.605 295.994 471.648 296.682 471.265C297.02 471.077 297.325 471.062 297.546 471.191Z" fill="#66431A"/>
<path d="M295.42 473.402C295.41 474.199 295.96 474.534 296.647 474.151C297.335 473.768 297.9 472.811 297.91 472.014C297.92 471.217 297.37 470.882 296.682 471.265C295.995 471.648 295.429 472.605 295.42 473.402Z" fill="#66431A"/>
<path d="M269.076 478.913C269.066 479.71 269.616 480.046 270.303 479.662C270.991 479.279 271.556 478.323 271.566 477.525C271.576 476.728 271.026 476.393 270.339 476.776C269.651 477.159 269.086 478.116 269.076 478.913Z" fill="#66431A"/>
<path d="M290.367 492.113C290.588 492.241 290.893 492.227 291.231 492.038C291.919 491.655 292.484 490.698 292.494 489.901C292.499 489.496 292.359 489.21 292.131 489.077L271.202 476.702C271.431 476.835 271.57 477.12 271.566 477.525C271.556 478.323 270.991 479.279 270.303 479.662C269.965 479.851 269.66 479.865 269.439 479.737C283.358 487.826 276.448 484.024 290.367 492.113Z" fill="#66431A"/>
<path d="M269.439 479.737L290.367 492.112C290.139 491.979 289.999 491.694 290.004 491.288L269.076 478.913C269.071 479.318 269.21 479.604 269.439 479.737Z" fill="#66431A"/>
<path d="M292.131 489.078L271.202 476.702C270.981 476.573 270.676 476.588 270.338 476.776C269.65 477.16 269.085 478.116 269.075 478.913L290.004 491.289C290.013 490.492 290.579 489.535 291.266 489.152C291.605 488.964 291.91 488.949 292.131 489.078Z" fill="#66431A"/>
<path d="M290.004 491.289C289.994 492.086 290.544 492.421 291.232 492.038C291.919 491.655 292.485 490.698 292.494 489.901C292.504 489.104 291.954 488.769 291.267 489.152C290.579 489.535 290.014 490.492 290.004 491.289Z" fill="#66431A"/>
<path d="M355.468 281.516L284.527 507.092L287.873 507.477L358.829 281.827L355.468 281.516Z" fill="#734B1E"/>
<path d="M358.357 280.94C357.69 280.555 356.613 280.555 355.95 280.94C355.288 281.325 355.292 281.949 355.959 282.334C356.626 282.719 357.703 282.719 358.365 282.335C359.027 281.95 359.024 281.326 358.357 280.94Z" fill="#5A3B18"/>
<path d="M287.4 506.596C286.733 506.21 285.655 506.21 284.993 506.596C284.331 506.98 284.335 507.604 285.001 507.989C285.668 508.374 286.746 508.374 287.407 507.99C288.07 507.605 288.067 506.981 287.4 506.596Z" fill="#734B1E"/>
<path d="M302.63 392.679C302.63 392.679 300.288 394.515 300.383 395.717C300.477 396.92 302.725 398.756 305.257 399.769C307.79 400.782 310.694 402.668 310.987 402.27C311.792 401.172 306.428 395.306 306.903 393.818L302.63 392.679Z" fill="#2F3116"/>
<path d="M289.905 413.518C289.905 413.518 289.204 415.496 289.661 418.133C289.661 418.133 291.943 419.756 294.377 418.843C296.812 417.93 296.609 415.901 297.927 415.445C299.246 414.988 301.833 414.38 301.427 413.112C301.021 411.844 299.296 410.944 297.521 411.857C295.746 412.77 289.905 413.518 289.905 413.518Z" fill="#2F3116"/>
<path d="M289.905 376.542C289.905 376.542 292.799 385.223 299.113 384.499C305.426 383.776 308.714 380.093 308.714 380.093C308.714 380.093 305.755 382.612 305.492 384.542C305.229 386.473 302.203 392.786 302.203 392.786C302.203 392.786 304.571 394.891 306.938 394.891C306.938 394.891 318.25 377.528 318.25 374.24C318.25 370.952 314.962 371.017 313.383 371.017C311.805 371.017 291.22 375.424 291.22 375.424L289.905 376.542Z" fill="#253B7E"/>
<path d="M285.914 373.092C285.914 373.092 282.89 376.518 288.414 395.54C288.414 395.54 287.537 402.301 289.521 413.751C289.521 413.751 290.209 415.094 294.805 413.291C294.805 413.291 296.001 399.29 296.412 394.891C296.823 390.491 296.913 375.616 296.913 375.616L285.914 373.092Z" fill="#253B7E"/>
<path d="M328.51 361.721C328.51 361.721 333.152 359.579 333.695 360.257C334.237 360.936 332.202 362.055 332.202 362.055C332.202 362.055 335.9 362.768 337.019 362.564C338.139 362.361 336.137 365.379 334.916 365.464C333.695 365.55 330.244 366.018 327.984 365.461L328.51 361.721Z" fill="#FBC3B1"/>
<path d="M315.134 344.786C315.134 344.786 319.222 344.508 319.889 343.914C320.556 343.321 318.174 342.463 318.174 342.463C318.174 342.463 319.794 340.799 320.795 341.012C321.795 341.225 321.605 340.558 321.08 339.795C320.556 339.033 317.078 337.699 315.887 338.223C314.696 338.747 312.91 341.942 312.91 341.942L315.134 344.786Z" fill="#FBC3B1"/>
<path d="M296.99 348.023C296.99 348.023 303.414 348.624 304.409 348.023C305.405 347.422 312.91 341.941 312.91 341.941C312.91 341.941 314.953 343.392 315.134 344.786C315.134 344.786 307.415 351.54 306.186 351.928C304.957 352.315 298.641 352.651 295.923 352.651C293.204 352.651 293.73 351.028 294.008 349.766C294.286 348.504 295.851 347.93 296.99 348.023Z" fill="#608CC8"/>
<path d="M298.245 347.386C298.245 347.386 304.777 351.497 305.035 353.488C305.293 355.479 303.228 362.336 303.228 364.732C303.228 367.129 303.007 373.986 303.007 373.986C303.007 373.986 299.689 379.664 292.463 378.3C285.237 376.936 284.389 373.581 284.573 372.327C284.757 371.073 286.011 363.184 285.716 360.603C285.421 358.022 283.172 344.824 288.96 343.607C288.96 343.607 292.414 343.496 298.245 347.386Z" fill="#5480C1"/>
<path d="M300.008 354.609C301.075 351.194 303.538 351.289 307.489 353.502C311.441 355.715 315.813 358.613 315.813 358.613C315.813 358.613 324.401 359.877 328.51 361.721C328.51 361.721 329.037 364.619 327.983 365.461C327.983 365.461 317.051 365.567 314.325 364.513C311.598 363.46 303.38 360.457 301.694 359.034C300.008 357.611 299.771 355.368 300.008 354.609Z" fill="#608CC8"/>
<path d="M296.742 333.555C299.953 334.274 301.917 335.474 302.14 337.08C302.363 338.685 303.166 346.091 301.114 346.492C299.062 346.894 295.091 346.894 294.378 342.21C293.664 337.526 293.754 332.886 296.742 333.555Z" fill="#FBC3B1"/>
<path d="M292.289 345.308L292.09 346.392C292.09 346.392 293.376 348.095 298.245 347.386L299.756 343.222L292.705 341.329L292.289 345.308Z" fill="#FBC3B1"/>
<path d="M294.975 342.463C294.975 342.463 296.855 342.085 298.097 339.298C298.097 339.298 302.361 339.231 304.409 335.571C304.409 335.571 299.642 332.482 295.713 332.012C291.785 331.542 290.241 334.262 290.308 335.638C290.308 335.638 287.488 337.019 288.73 340.072C289.972 343.125 292.289 345.308 292.289 345.308C292.289 345.308 294.202 344.185 294.975 342.463Z" fill="#76401A"/>
<path d="M295.999 342.504C295.999 342.504 294.588 340.389 293.48 341.195C292.372 342.001 294.538 343.814 295.999 343.914V342.504Z" fill="#FBC3B1"/>
<path opacity="0.1" d="M654.66 483.977C665.527 483.977 674.337 480.833 674.337 476.955C674.337 473.077 665.527 469.933 654.66 469.933C643.793 469.933 634.984 473.077 634.984 476.955C634.984 480.833 643.793 483.977 654.66 483.977Z" fill="black"/>
<path d="M643.812 475.245C645.998 476.66 650.562 472.031 651.653 468.303L652.04 472.932H652.875C652.875 472.932 653.368 467.376 653.17 464.037C653.12 463.202 653.028 462.506 652.875 462.07C652.875 462.07 652.887 461.872 652.906 461.509C653.064 458.518 653.703 444.327 652.04 437.511C652.04 437.511 655.252 415.396 653.582 406.821L644.296 405.85C644.296 405.85 642.077 419.905 644.713 438.61C646.739 453.002 647.55 459.327 647.786 462.296C647.857 463.185 647.876 463.775 647.862 464.19C647.829 465.093 646.256 467.524 644.973 469.897C643.707 472.248 642.725 474.541 643.812 475.245Z" fill="#FBC3B1"/>
<path d="M644.713 438.611C646.739 453.003 647.55 459.328 647.786 462.297C650.856 462.469 652.264 461.969 652.906 461.509C653.064 458.519 653.703 444.327 652.04 437.512C652.04 437.512 655.252 415.396 653.583 406.822L644.296 405.85C644.296 405.85 642.077 419.905 644.713 438.611Z" fill="#543A17"/>
<path d="M643.812 475.246C645.998 476.661 650.562 472.031 651.653 468.303L652.04 472.932H652.875C652.875 472.932 653.368 467.376 653.17 464.037C652.774 464.195 652.304 464.61 651.981 465.636C651.316 467.758 649.68 471.09 648.194 471.182C647.392 471.232 645.977 470.703 644.972 469.897C643.707 472.248 642.725 474.541 643.812 475.246Z" fill="#453017"/>
<path d="M660.106 476.134C660.451 475.035 660.858 473.949 661.214 473.059C661.242 472.399 661.273 471.893 661.353 471.643C661.787 470.287 662.179 468.751 661.504 466.61C660.549 467.286 658.65 468.106 655.769 467.026C655.927 468.597 655.927 470.001 655.603 471.68C655.911 472.828 655.262 474.526 655.04 476.134C654.771 478.085 659.298 478.713 660.106 476.134Z" fill="#FBC3B1"/>
<path d="M655.411 482.181C660.964 482.865 661.08 476.206 661.214 473.06C660.858 473.949 660.45 475.036 660.106 476.135C659.299 478.712 654.771 478.085 655.04 476.135C655.262 474.526 655.91 472.828 655.604 471.68C655.413 472.675 655.109 473.77 654.66 475.052C652.668 480.736 655.411 482.181 655.411 482.181Z" fill="#453017"/>
<path d="M649.01 407.472C649.01 407.472 649.934 433.512 650.218 439.196C650.497 444.879 654.069 454.798 654.924 461.102C655.261 463.585 655.602 465.396 655.769 467.026C658.651 468.106 660.549 467.286 661.504 466.611C661.459 466.464 661.409 466.316 661.353 466.164C660.474 463.787 660.681 450.768 660.716 448.081C660.751 445.396 658.83 440.437 658.83 440.437C658.83 440.437 661.196 430.103 662.247 424.211C663.296 418.323 661.679 409.836 661.679 409.836C655.755 409.823 649.01 407.472 649.01 407.472Z" fill="#63441A"/>
<path d="M646.472 381.068C645.273 383.179 642.95 393.421 641.969 394.749C640.987 396.076 634.695 403.697 634.695 403.697C634.695 403.697 636.543 404.909 637.062 406.41C637.062 406.41 645.201 400.695 646.472 397.693C647.742 394.691 650.281 387.072 650.859 383.146C651.436 379.221 647.684 378.932 646.472 381.068Z" fill="#DD67A7"/>
<path d="M634.695 403.697C634.695 403.697 629.117 403.117 628.902 403.833C628.687 404.548 631.693 405.264 631.693 405.264C631.693 405.264 627.638 407.625 627.829 408.15C628.019 408.675 631.407 411.275 633.506 409.629C635.605 407.983 637.062 406.41 637.062 406.41C637.062 406.41 636.743 404.849 634.695 403.697Z" fill="#FBC3B1"/>
<path d="M655.949 376.416C657.353 376.629 662.477 378.98 664.943 382.965C667.41 386.951 662.438 393.023 661.793 396.477C661.148 399.931 662.439 409.115 661.679 409.836C660.92 410.558 651.166 411.62 644.297 405.851C644.297 405.851 646.156 399.627 645.853 396.439C645.549 393.251 645.435 391.543 644.866 389.873C644.297 388.203 643.651 384.571 645.132 382.041C646.612 379.512 648.054 375.218 655.949 376.416Z" fill="#D43794"/>
<path d="M651.571 360.818C651.571 360.818 661.174 358.203 662.765 366.213C664.356 374.224 656.403 379.665 656.403 379.665L651.571 360.818Z" fill="#945223"/>
<path d="M653.283 378.123C653.283 378.123 648.41 382.173 648.607 389.186C648.607 389.186 643.471 381.053 652.492 374.896L653.283 378.123Z" fill="#945223"/>
<path d="M662.302 383.465C659.138 385.625 661.316 389.321 662.631 391.622C663.946 393.924 666.686 397.76 666.303 399.459C665.919 401.158 659.663 408.118 659.663 408.118C659.663 408.118 661.48 409.269 662.247 410.693C662.247 410.693 673.756 403.788 673.756 400.555C673.756 397.322 668.604 387.874 666.709 385.32C664.815 382.766 664.056 382.268 662.302 383.465Z" fill="#DD67A7"/>
<path d="M662.248 410.693C662.248 410.693 661.554 412.029 659.663 412.301C657.773 412.572 656.823 411.704 656.295 412.301C655.766 412.897 654.519 414.741 654.03 414.579C653.542 414.416 653.105 411.377 653.283 410.693C653.461 410.01 654.829 407.514 659.663 408.118C659.663 408.118 661.787 409.303 662.248 410.693Z" fill="#FBC3B1"/>
<path d="M657.001 361.976C653.734 361.644 650.356 361.644 649.47 366.406C648.584 371.168 649.248 376.318 649.248 376.318C649.248 376.318 655.395 377.647 657.721 370.504C660.046 363.36 657.001 361.976 657.001 361.976Z" fill="#FBC3B1"/>
<path d="M652.926 379.665C652.926 379.665 652.685 376.439 650.49 374.683C650.49 374.683 652.531 370.951 656.701 369.261C656.701 369.261 658.457 374.398 658.831 376.746C658.831 376.746 657.338 379.292 652.926 379.665Z" fill="#FBC3B1"/>
<path d="M651.571 360.818C651.571 360.818 650.783 368.262 657.721 370.504L661.3 371.659C661.3 371.659 662.658 359.904 651.571 360.818Z" fill="#945223"/>
<path d="M656.402 370.381C656.402 370.381 658.316 367.24 659.638 369.521C661.028 371.919 657.221 372.798 656.402 372.06V370.381Z" fill="#FBC3B1"/>
<path d="M658.831 376.746C658.831 376.746 656.319 379.331 652.926 379.665C652.926 379.665 654.613 381.762 654.494 383.465C654.494 383.465 658.916 380.477 659.663 377.549L658.831 376.746Z" fill="#DE549F"/>
<path d="M652.926 379.665C652.926 379.665 651.394 380.268 651.174 381.907C651.174 381.907 650.792 380.304 652.751 378.628C652.751 378.628 652.92 379.202 652.926 379.665Z" fill="#DD67A7"/>
<path opacity="0.1" d="M63.0463 491.622C74.1175 491.622 83.0925 488.418 83.0925 484.467C83.0925 480.516 74.1175 477.313 63.0463 477.313C51.975 477.313 43 480.516 43 484.467C43 488.418 51.975 491.622 63.0463 491.622Z" fill="black"/>
<path d="M55.5497 480.187C55.5623 484.072 56.0847 489.894 51.6391 489.422C46.8922 488.921 49.4737 478.434 49.8899 476.765C50.1107 475.89 50.5607 474.897 51.0702 473.912C50.5139 477.954 50.9724 483.189 52.586 484.008C53.8725 484.663 54.9721 481.992 55.5497 480.187Z" fill="#009253"/>
<path d="M71.7054 450.623C70.0708 457.633 68.7374 464.945 69.5865 470.231C67.4977 470.813 65.8034 470.715 64.6018 470.456C65.417 466.032 64.4742 458.495 64.5423 455.536C64.6272 452.037 66.4572 448.293 66.4572 448.293C65.8754 441.966 65.2087 426.978 65.2087 426.978C65.2087 426.978 64.1259 446.878 64.0452 448.793C63.9771 450.364 58.3514 467.429 56.2965 475.602C53.94 475.046 52.8062 472.965 52.4029 471.479C52.4285 471.436 52.4497 471.394 52.4707 471.356C53.3879 469.692 54.135 459.531 54.3517 456.784C54.5641 454.037 57.4681 450.538 58.2155 448.292C58.9671 446.046 52.9718 433.058 52.0546 426.727C51.1374 420.401 53.6298 415.998 53.6298 415.998L70.6474 413.934C73.9175 418.125 74.2872 439.55 71.7054 450.623Z" fill="#21361A"/>
<path d="M78.2824 481.262C76.202 482.179 67.294 480.515 64.9588 479.432C62.8061 478.434 62.2201 476.439 63.5789 473.326C64.3305 474.239 65.5025 475.356 67.3111 476.562C70.5166 478.689 72.5845 477.67 73.5272 476.885C73.5569 476.902 73.5908 476.918 73.6205 476.936C79.9467 480.349 78.2824 481.262 78.2824 481.262Z" fill="#009253"/>
<path d="M73.5267 476.885C72.584 477.67 70.5165 478.689 67.3106 476.562C65.5017 475.356 64.3301 474.239 63.5785 473.326C63.5785 473.322 63.5785 473.322 63.5785 473.322C63.6931 473.063 63.8206 472.796 63.9604 472.52C64.2448 471.968 64.4531 471.263 64.6016 470.456C65.8033 470.715 67.4972 470.813 69.5864 470.231C70.0664 473.254 71.2639 475.619 73.5267 476.885Z" fill="#FBC3B1"/>
<path d="M52.3531 469.9L52.2338 470.164C52.2506 470.006 52.2934 469.908 52.3531 469.9Z" fill="#FBC3B1"/>
<path d="M56.2969 475.602C55.8469 477.386 55.5709 478.748 55.5537 479.432C55.5496 479.674 55.5453 479.925 55.5495 480.188C54.972 481.992 53.8724 484.663 52.5858 484.009C50.9725 483.19 50.5138 477.954 51.07 473.912C51.503 473.072 51.9872 472.235 52.4031 471.479C52.8066 472.966 53.9405 475.046 56.2969 475.602Z" fill="#FBC3B1"/>
<path d="M56.9609 368.983C55.5294 368.468 52.3225 367.208 51.0628 370.128C49.803 373.048 50.3251 380.149 52.412 393.721L60.6475 392.403L56.9609 368.983Z" fill="#AB2E24"/>
<path d="M57.8532 386.162C59.7667 385.36 66.1801 384.959 68.0126 384.959C69.8451 384.959 71.962 392.765 71.9813 395.529C72.0046 398.818 71.2766 401.566 69.6733 404.143C68.0701 406.72 70.6467 413.935 70.6467 413.935C70.6467 413.935 66.2224 422.639 53.632 415.996C53.632 415.996 56.2228 407.865 52.4116 402.081C48.6004 396.298 49.1157 392.633 50.8336 391.086C52.5514 389.541 57.8532 386.162 57.8532 386.162Z" fill="#007A6D"/>
<path d="M83.4327 382.289C80.9871 384.909 76.7326 389.21 71.68 392.216C71.68 392.216 67.9818 393.121 66.6317 389.096C65.8885 386.879 65.6466 385.38 70.572 384.332C74.6735 383.461 78.2571 380.417 79.8452 378.816C80.6387 379.874 81.8575 381.241 83.4327 382.289Z" fill="#007A6D"/>
<path d="M50.7305 409.587C50.4884 410.189 50.2889 410.843 50.1274 411.544C47.945 411.574 46.0302 410.567 44.7139 409.612C45.7416 405.154 47.7116 397.978 48.5397 395.329C49.4569 392.403 51.7284 391.006 53.588 392.285C55.5497 393.626 53.4182 402.976 50.7305 409.587Z" fill="#007A6D"/>
<path d="M50.1701 431.385C49.6096 433.088 47.6012 437.202 44.9774 435.003C42.3491 432.807 45.954 430.421 46.0899 428.451C46.23 426.485 43.5255 415.102 44.4298 410.886C44.5147 410.495 44.608 410.066 44.7143 409.612C46.0305 410.567 47.9453 411.574 50.1278 411.544C48.5016 418.55 50.6753 429.831 50.1701 431.385Z" fill="#FBC3B1"/>
<path d="M94.3447 362.962C92.6207 365.735 91.6951 367.272 91.6951 367.272C91.6951 367.272 86.5873 379.079 85.4748 380.103C85.1478 380.404 84.4472 381.203 83.4325 382.29C81.8573 381.241 80.6385 379.874 79.8447 378.816C80.1675 378.493 80.4051 378.226 80.5494 378.052C81.4114 377.004 88.5573 366.41 88.6803 365.425C88.8033 364.44 86.7104 356.865 88.188 357.604C89.6657 358.343 89.9711 360.5 89.9711 360.5C89.9711 360.5 91.0197 355.511 92.4338 356.003C93.8521 356.496 96.0687 360.19 94.3447 362.962Z" fill="#FBC3B1"/>
<path d="M64.7463 372.492C64.7463 372.492 66.1304 369.253 63.8282 368.381C61.5256 367.51 57.7506 367.178 55.6139 369.024C53.4773 370.87 49.7439 376.595 55.3857 382.984L64.7463 372.492Z" fill="#BA3426"/>
<path d="M64.1707 370.949C65.0095 372.205 68.0003 379.182 63.8072 385.56C63.8072 385.56 54.3426 388.219 56.32 373.471L64.1707 370.949Z" fill="#FBC3B1"/>
<path d="M65.114 370.414C65.2176 372.074 63.1433 379.23 56.7338 378.608C50.3243 377.985 55.3856 370.622 58.2273 369.999C61.069 369.377 65.114 370.414 65.114 370.414Z" fill="#BA3426"/>
<path d="M56.1218 380.104L56.0146 387.395C56.0146 387.395 57.8533 389.594 60.9045 388.992C60.9045 388.992 62.5497 382.785 62.6873 382.819C62.8248 382.854 56.1218 380.104 56.1218 380.104Z" fill="#FBC3B1"/>
<path d="M57.8531 378.938C57.8531 378.938 56.4407 375.488 54.8471 376.921C53.3598 378.258 55.8964 380.371 56.885 380.33L57.8531 378.938Z" fill="#FBC3B1"/>
<path opacity="0.1" d="M517.669 319.93C529.662 319.93 539.384 316.461 539.384 312.181C539.384 307.901 529.662 304.431 517.669 304.431C505.676 304.431 495.954 307.901 495.954 312.181C495.954 316.461 505.676 319.93 517.669 319.93Z" fill="black"/>
<path d="M524.117 309.007C524.117 309.007 523.565 310.023 522.826 310.85C522.086 311.676 517.997 314.417 518.301 315.722C518.606 317.027 520.39 319.289 523.522 317.984C526.654 316.679 526.614 314.666 528.485 313.318C530.356 311.969 530.719 311.696 530.85 310.826C530.98 309.956 530.525 307.807 530.525 307.807L524.117 309.007Z" fill="#2B3742"/>
<path d="M509.818 301.33C509.818 301.33 505.63 304.598 503.774 305.386C501.918 306.174 499.732 307.14 499.528 307.928C499.325 308.716 498.918 310.852 503.189 310.292C507.46 309.733 509.341 306.937 511.477 306.809C513.613 306.682 515.494 306.301 515.901 305.106C516.307 303.911 515.357 301.927 515.357 301.927L509.818 301.33Z" fill="#2B3742"/>
<path d="M522.967 206.148C524.993 205.954 529.85 205.393 532.762 208.413C535.674 211.433 536.105 216.282 532.007 217.309C527.908 218.337 522.407 213.86 521.382 211.271C520.358 208.683 521.359 206.302 522.967 206.148Z" fill="#405264"/>
<path d="M550.667 207.119C550.667 207.119 550.607 207.596 550.501 208.394C549.979 212.318 548.346 223.993 547.269 224.754C545.975 225.671 540.582 225.618 529.957 223.838C529.957 223.838 527.153 221.464 528.34 216.88C529.526 212.296 531.776 212.808 531.776 212.808C532.976 213.863 542.847 220.027 543.925 217.817C544.738 216.152 546.007 209.978 546.586 207.026C546.776 206.056 546.892 205.434 546.892 205.434C546.892 205.434 547.506 206.887 550.667 207.119Z" fill="#4D6479"/>
<path d="M496.186 192.376C493.948 192.347 492.365 194.348 492.365 194.348C490.355 193.493 487.891 188.913 490.072 186.86C492.252 184.807 495.031 186.518 495.459 187.502C495.887 188.485 496.186 192.376 496.186 192.376Z" fill="#FBC3B1"/>
<path d="M515.885 205.728L513.416 217.46C513.416 217.46 503.156 210.247 500.932 208.024C499.178 206.271 494.859 198.773 493.114 195.685C494.924 193.967 496.362 193.519 497.01 193.403C498.919 195.773 503.65 201.585 505.806 203.714C508.542 206.415 515.885 205.728 515.885 205.728Z" fill="#4D6479"/>
<path d="M532.421 249.549C532.421 249.549 535.042 252.246 533.934 257.615C532.826 262.984 529.588 276.192 529.929 282.157C530.27 288.122 530.525 307.807 530.525 307.807C530.525 307.807 528.289 311.416 524.117 309.007C524.117 309.007 520.981 285.736 520.555 280.793C520.129 275.851 520.483 261.994 520.483 261.994L515.698 278.578C515.698 278.578 516.976 282.413 516.465 285.139C515.953 287.866 515.101 298.092 515.357 301.927C515.357 301.927 511.693 303.631 509.818 301.33C509.818 301.33 508.369 281.645 508.369 274.913C508.369 268.181 512.338 245.906 512.338 245.906C512.338 245.906 518.636 249.579 532.421 249.549Z" fill="#4D312C"/>
<path d="M523.078 206.301C527.073 207.416 532.16 213.25 534.205 214.922C536.249 216.593 534.057 225.726 533.57 228.527C533.083 231.328 533.631 246.732 533.266 248.011C532.9 249.289 531.029 253.795 518.082 249.533C505.136 245.271 514.634 236.564 512.138 220.003C509.642 203.442 516.682 204.518 523.078 206.301Z" fill="#4D6479"/>
<path d="M524.66 192.753C525.402 192.932 527.18 193.418 526.85 195.844C526.52 198.27 526.921 203.806 522.281 203.712C517.64 203.618 519.901 194.172 521.103 193.795C522.304 193.418 524.328 192.673 524.66 192.753Z" fill="#5F3D37"/>
<path d="M513.69 195.126C513.69 195.126 511.879 204.637 515.049 206.788C518.219 208.939 524.555 206.137 523.309 197.419C522.064 188.7 513.69 195.126 513.69 195.126Z" fill="#FBC3B1"/>
<path d="M523.859 199.377C523.688 200.404 522.166 200.357 521.185 198.426C520.205 196.494 519.373 195.068 517.917 195.811C516.461 196.554 513.578 197.208 512.36 195.246C511.142 193.285 508.854 193.998 509.834 191.502C510.815 189.006 513.014 191.71 515.569 190.938C518.124 190.165 521.542 188.679 524.305 190.7C527.068 192.721 523.889 199.198 523.859 199.377Z" fill="#5F3D37"/>
<path d="M518.082 205.676L519.143 208.952C519.143 208.952 519.859 210.337 521.935 210.314C524.012 210.291 525.821 208.577 525.433 207.383C525.373 207.199 523.388 200.554 523.388 200.554L518.082 205.676Z" fill="#FBC3B1"/>
<path d="M524.434 198.949C524.87 199.478 524.567 200.448 523.756 201.116C522.945 201.784 521.935 201.897 521.499 201.368C521.064 200.839 521.367 199.869 522.178 199.201C522.989 198.534 523.999 198.421 524.434 198.949Z" fill="#FBC3B1"/>
<path d="M551.239 206.076C551.078 206.424 550.888 206.772 550.667 207.119C547.506 206.887 546.892 205.434 546.892 205.434C546.892 205.434 546.645 205.04 546.354 204.427C545.583 202.805 544.503 199.647 546.892 198.231C549.964 196.407 553.506 201.177 551.239 206.076Z" fill="#FBC3B1"/>
<path d="M550.666 207.119C550.666 207.119 550.607 207.596 550.501 208.394C548.741 208.305 547.3 207.517 546.586 207.026C546.776 206.056 546.892 205.434 546.892 205.434C546.892 205.434 547.506 206.887 550.666 207.119Z" fill="#405264"/>
<path d="M497.01 193.403C496.362 193.519 494.924 193.967 493.114 195.685C492.665 194.889 492.386 194.387 492.366 194.35L492.365 194.348C492.365 194.348 493.948 192.348 496.186 192.376C496.186 192.376 496.495 192.765 497.01 193.403Z" fill="#405264"/>
<path d="M513.28 233.514C513.28 233.514 518.251 236.408 524.41 236.779C524.41 236.779 524.335 241.973 527.303 244.458C527.303 244.458 525.893 248.242 525.782 248.242C525.671 248.242 515.283 247.241 512.13 243.048L511.685 238.968C511.685 238.968 512.946 237.707 513.28 233.514Z" fill="#577088"/>
<defs>
<linearGradient id="paint0_linear_536_587" x1="-0.000223925" y1="459" x2="710" y2="459" gradientUnits="userSpaceOnUse">
<stop stop-color="#C6E9FB"/>
<stop offset="1" stop-color="#37ADE3"/>
</linearGradient>
</defs>
</svg>
